<?xml version="1.0" standalone="no"?>
<!DOCTYPE svg PUBLIC "-//W3C//DTD SVG 20010904//EN"
 "http://www.w3.org/TR/2001/REC-SVG-20010904/DTD/svg10.dtd">
<svg version="1.0" xmlns="http://www.w3.org/2000/svg"
 width="299.000000pt" height="234.000000pt" viewBox="0 0 299.000000 234.000000"
 preserveAspectRatio="xMidYMid meet">

<g transform="translate(0.000000,234.000000) scale(0.100000,-0.100000)"
fill="#000000" stroke="none">
<path d="M980 2238 c62 -18 60 -5 60 -322 0 -160 -4 -296 -8 -302 -4 -6 -25
-16 -47 -22 -39 -10 -38 -10 31 -11 88 -1 85 -7 84 183 -1 117 2 141 16 157 9
11 20 19 23 19 3 0 31 -31 61 -68 37 -47 67 -74 95 -85 22 -9 44 -17 48 -17 4
0 -31 48 -78 107 l-85 108 78 78 c109 111 147 139 222 164 l65 22 -120 -1
c-92 0 -112 -2 -87 -9 17 -5 32 -15 32 -22 0 -7 -61 -73 -135 -147 l-135 -135
0 130 c0 72 5 137 10 145 5 8 29 20 52 27 38 10 29 11 -87 11 -103 0 -123 -2
-95 -10z"/>
<path d="M1519 1854 c-90 -130 -241 -345 -335 -478 -94 -132 -169 -245 -166
-250 3 -6 14 1 23 15 10 13 130 183 266 378 136 194 281 399 321 456 40 57 68
106 63 109 -5 3 -82 -100 -172 -230z"/>
<path d="M1857 1698 c-8 -13 -65 -141 -128 -285 -62 -144 -116 -260 -119 -258
-3 2 -41 81 -85 175 l-79 171 -21 -27 -21 -27 86 -189 c48 -103 91 -193 96
-198 7 -7 52 87 134 275 68 157 125 283 127 282 2 -2 8 -120 14 -262 11 -285
13 -275 -51 -293 -28 -8 -9 -10 90 -10 99 0 118 2 90 10 -64 18 -63 12 -74
307 -6 149 -9 280 -6 292 6 24 18 33 70 47 32 9 28 10 -37 11 -65 1 -74 -1
-86 -21z"/>
<path d="M1298 1290 c-4 -8 -9 -51 -11 -95 -6 -101 -10 -110 -55 -129 -36 -15
-35 -15 68 -15 92 0 101 2 73 12 -53 20 -58 30 -63 140 -3 56 -8 95 -12 87z"/>
<path d="M90 480 c0 -47 4 -80 10 -80 6 0 10 8 10 19 0 10 7 24 16 32 13 11
19 8 41 -19 40 -52 60 -40 22 13 l-33 45 29 30 c46 48 19 48 -30 0 l-45 -44 0
42 c0 23 -4 42 -10 42 -6 0 -10 -33 -10 -80z"/>
<path d="M373 550 c-32 -13 -56 -55 -49 -85 22 -86 145 -86 162 1 11 56 -58
107 -113 84z m77 -41 c17 -30 8 -62 -21 -78 -24 -13 -29 -13 -53 2 -48 32 -25
97 34 97 19 0 33 -7 40 -21z"/>
<path d="M610 480 c0 -47 4 -80 10 -80 6 0 10 23 10 50 0 28 3 50 8 50 4 0 23
-23 42 -50 50 -71 60 -66 60 30 0 91 -17 109 -22 23 l-3 -57 -43 57 c-23 31
-47 57 -52 57 -6 0 -10 -35 -10 -80z"/>
<path d="M888 549 c-10 -5 -18 -21 -18 -35 0 -21 8 -29 40 -41 41 -16 52 -36
25 -47 -8 -3 -26 0 -40 6 -32 14 -47 1 -21 -18 41 -30 106 -10 106 32 0 21 -8
29 -40 41 -50 20 -54 45 -7 43 49 -3 54 -1 33 15 -23 17 -53 19 -78 4z"/>
<path d="M1087 554 c-10 -11 3 -24 24 -24 17 0 19 -7 19 -65 0 -51 3 -65 15
-65 12 0 15 14 15 65 0 63 1 65 25 65 16 0 25 6 25 15 0 12 -13 15 -58 15 -32
0 -62 -3 -65 -6z"/>
<path d="M1361 538 c-5 -13 -21 -49 -35 -80 -17 -39 -22 -58 -13 -58 7 0 18 9
25 20 8 14 23 20 48 20 27 0 37 -5 41 -20 3 -11 12 -20 19 -20 19 0 19 0 -18
85 -33 77 -52 92 -67 53z m27 -76 c-28 -5 -33 4 -18 35 l13 28 12 -30 c12 -27
12 -30 -7 -33z"/>
<path d="M1580 480 c0 -47 4 -80 10 -80 6 0 10 26 10 57 l0 57 42 -57 c58 -79
68 -75 68 23 0 91 -17 109 -22 23 l-3 -58 -44 58 c-24 31 -47 57 -52 57 -5 0
-9 -36 -9 -80z"/>
<path d="M1827 554 c-10 -11 3 -24 24 -24 17 0 19 -7 19 -65 0 -51 3 -65 15
-65 12 0 15 14 15 65 0 63 1 65 25 65 16 0 25 6 25 15 0 12 -13 15 -58 15 -32
0 -62 -3 -65 -6z"/>
<path d="M2060 481 c0 -66 3 -81 15 -81 13 0 15 13 13 77 -2 50 -7 78 -15 81
-10 3 -13 -17 -13 -77z"/>
<path d="M2220 480 c0 -47 4 -80 10 -80 6 0 10 23 10 50 0 28 3 50 8 50 4 0
23 -23 42 -50 50 -71 60 -66 60 30 0 91 -17 109 -22 23 l-3 -57 -43 57 c-23
31 -47 57 -52 57 -6 0 -10 -35 -10 -80z"/>
<path d="M2523 550 c-32 -13 -56 -55 -49 -85 22 -86 145 -86 162 1 11 56 -58
107 -113 84z m77 -41 c17 -30 8 -62 -21 -78 -24 -13 -29 -13 -53 2 -48 32 -25
97 34 97 19 0 33 -7 40 -21z"/>
<path d="M2772 544 c-35 -24 -28 -53 18 -71 40 -16 52 -39 26 -49 -8 -3 -24 0
-35 6 -12 6 -27 8 -33 4 -17 -11 21 -34 57 -34 37 0 55 16 55 48 0 18 -9 27
-40 39 -52 21 -54 46 -3 41 41 -3 57 16 21 26 -34 9 -41 8 -66 -10z"/>
<path d="M90 180 c0 -47 4 -80 10 -80 6 0 10 26 10 58 l1 57 25 -47 c13 -27
29 -48 34 -48 5 0 21 21 34 48 l25 47 1 -57 c0 -32 5 -58 10 -58 6 0 10 33 10
80 0 96 -15 105 -50 30 -13 -27 -26 -50 -30 -50 -4 0 -17 23 -30 50 -35 75
-50 66 -50 -30z"/>
<path d="M390 181 l0 -81 55 0 c30 0 55 5 55 10 0 6 -20 10 -45 10 -41 0 -45
2 -45 25 0 23 4 25 40 25 22 0 40 5 40 10 0 6 -18 10 -40 10 -33 0 -40 3 -40
20 0 17 7 20 46 20 65 0 53 24 -14 28 l-52 3 0 -80z"/>
<path d="M620 181 l0 -81 45 0 c25 0 45 5 45 10 0 6 -13 10 -30 10 -29 0 -29
0 -32 67 -2 42 -8 68 -15 71 -10 3 -13 -17 -13 -77z"/>
<path d="M830 181 c0 -66 3 -81 15 -81 13 0 15 13 13 77 -2 50 -7 78 -15 81
-10 3 -13 -17 -13 -77z"/>
<path d="M999 241 c-30 -25 -19 -48 36 -74 33 -16 36 -20 23 -33 -11 -12 -21
-13 -43 -4 -34 13 -47 3 -21 -16 29 -21 72 -18 90 8 19 27 9 46 -35 67 -42 20
-39 36 6 35 40 -1 48 20 13 30 -35 9 -44 7 -69 -13z"/>
<path d="M1232 244 c-35 -24 -28 -53 18 -71 40 -16 52 -39 26 -49 -8 -3 -24 0
-35 6 -12 6 -27 8 -33 4 -17 -11 21 -34 57 -34 37 0 55 16 55 48 0 18 -9 27
-40 39 -52 21 -54 46 -3 41 41 -3 57 16 21 26 -34 9 -41 8 -66 -10z"/>
<path d="M1460 232 c-37 -37 -39 -74 -5 -107 33 -34 83 -34 115 0 46 49 21
117 -47 131 -27 5 -37 1 -63 -24z m95 -22 c41 -45 -18 -110 -70 -76 -27 18
-34 63 -13 84 18 18 63 14 83 -8z"/>
<path d="M1713 245 c-11 -30 4 -118 23 -132 26 -19 71 -16 94 7 26 26 30 140
5 140 -12 0 -15 -13 -15 -59 0 -70 -16 -91 -55 -73 -23 10 -25 17 -25 72 0 57
-13 79 -27 45z"/>
<path d="M1980 180 c0 -47 4 -80 10 -80 6 0 10 11 10 25 0 35 41 35 60 0 7
-14 20 -25 28 -25 12 0 11 5 -3 26 -16 25 -16 28 -1 36 9 5 16 22 16 38 0 37
-32 60 -82 60 l-38 0 0 -80z m94 34 c9 -24 -12 -44 -45 -44 -26 0 -29 4 -29
30 0 27 3 30 34 30 22 0 36 -6 40 -16z"/>
<path d="M2263 250 c-79 -32 -56 -150 30 -150 43 0 70 20 65 48 -4 30 -22 33
-26 5 -7 -49 -92 -29 -92 22 0 38 27 58 72 52 43 -6 51 9 12 23 -30 12 -32 12
-61 0z"/>
<path d="M2500 232 c-37 -37 -39 -74 -5 -107 33 -34 83 -34 115 0 46 49 21
117 -47 131 -27 5 -37 1 -63 -24z m95 -22 c41 -45 -18 -110 -70 -76 -27 18
-34 63 -13 84 18 18 63 14 83 -8z"/>
<path d="M2768 249 c-10 -5 -18 -21 -18 -35 0 -21 8 -29 40 -41 41 -16 52 -36
25 -47 -8 -3 -26 0 -40 6 -32 14 -47 1 -21 -18 41 -30 106 -10 106 32 0 21 -8
29 -40 41 -50 20 -54 45 -7 43 49 -3 54 -1 33 15 -23 17 -53 19 -78 4z"/>
</g>
</svg>
